<?xml version="1.0" encoding="UTF-8"?>
<svg width="176px" height="198px" viewBox="0 0 176 198" version="1.1" xmlns="http://www.w3.org/2000/svg" xmlns:xlink="http://www.w3.org/1999/xlink">
    <title>node-js</title>
    <g id="页面-1" stroke="none" stroke-width="1" fill="none" fill-rule="evenodd">
        <g id="node-js" transform="translate(0.773438, 0.582031)" fill="#689F63">
            <path d="M87.2265625,196.855469 C84.609375,196.855469 81.953125,196.152344 79.6484375,194.824219 L55.546875,180.566406 C51.953125,178.535156 53.7109375,177.832031 54.8828125,177.441406 C59.6875,175.761719 60.6640625,175.410156 65.78125,172.480469 C66.328125,172.167969 67.03125,172.285156 67.578125,172.636719 L86.09375,183.613281 C86.7578125,184.003906 87.6953125,184.003906 88.3203125,183.613281 L160.46875,141.972656 C161.132812,141.582031 161.5625,140.800781 161.5625,140.019531 L161.5625,56.7382812 C161.5625,55.9179687 161.132812,55.1757812 160.429688,54.7460937 L88.3203125,13.1445312 C87.65625,12.7539062 86.7578125,12.7539062 86.09375,13.1445312 L14.0234375,54.7851562 C13.3203125,55.1757812 12.890625,55.9570312 12.890625,56.7773437 L12.890625,140.019531 C12.890625,140.800781 13.3203125,141.582031 14.0234375,141.933594 L33.7890625,153.339844 C44.53125,158.691406 51.09375,152.402344 51.09375,146.035156 L51.09375,63.8476562 C51.09375,62.6757812 52.03125,61.7773437 53.203125,61.7773437 L62.34375,61.7773437 C63.4765625,61.7773437 64.453125,62.6757812 64.453125,63.8476562 L64.453125,146.074219 C64.453125,160.371094 56.640625,168.574219 43.0859375,168.574219 C38.90625,168.574219 35.625,168.574219 26.484375,164.042969 L7.578125,153.144531 C2.890625,150.449219 0,145.410156 0,139.980469 L0,56.7382812 C0,51.3476562 2.890625,46.2695312 7.578125,43.5742187 L79.6484375,1.93359375 C84.21875,-0.64453125 90.2734375,-0.64453125 94.8046875,1.93359375 L166.953125,43.6132812 C171.640625,46.3085937 174.53125,51.3476562 174.53125,56.7773437 L174.53125,140.019531 C174.53125,145.410156 171.640625,150.449219 166.953125,153.183594 L94.8046875,194.824219 C92.5,196.152344 89.8828125,196.855469 87.2265625,196.855469 Z" id="形状" fill-rule="nonzero"></path>
            <rect id="矩形" x="73" y="62" width="13" height="77" rx="2"></rect>
            <rect id="矩形备份" x="126" y="62" width="13" height="77" rx="2"></rect>
            <rect id="矩形备份-2" transform="translate(106.500000, 99.500000) rotate(90.000000) translate(-106.500000, -99.500000) " x="100" y="69" width="13" height="61" rx="2"></rect>
        </g>
    </g>
</svg>